<?xml version="1.0" encoding="UTF-8"?>
<svg version="1.1" xmlns="http://www.w3.org/2000/svg" width="32" height="32">
<path d="M0 0 C10.56 0 21.12 0 32 0 C32 10.56 32 21.12 32 32 C21.44 32 10.88 32 0 32 C0 21.44 0 10.88 0 0 Z " fill="#040303" transform="translate(0,0)"/>
<path d="M0 0 C0.763125 0.66 1.52625 1.32 2.3125 2 C2.3125 2.99 2.3125 3.98 2.3125 5 C-6.5975 5 -15.5075 5 -24.6875 5 C-24.6875 2.69 -24.6875 0.38 -24.6875 -2 C-15.70606282 -5.79908948 -8.38197015 -5.06862666 0 0 Z " fill="#DCE0DB" transform="translate(24.6875,27)"/>
<path d="M0 0 C2.3125 -0.3125 2.3125 -0.3125 5 0 C7.10693321 2.24739542 7.9657911 3.90103906 8.0625 7.0078125 C7.79478282 10.03078562 7.32671256 12.48659456 5.6875 15.0625 C4 16 4 16 2 15.875 C-0.41147766 14.81997852 -1.52714463 14.20928305 -3 12 C-3.1875 8.3125 -3.1875 8.3125 -3 5 C-1.68 5.33 -0.36 5.66 1 6 C1 5.34 1 4.68 1 4 C0.01 4 -0.98 4 -2 4 C-1.34 2.68 -0.68 1.36 0 0 Z " fill="#B08B76" transform="translate(14,7)"/>
<path d="M0 0 C-1.75 4.875 -1.75 4.875 -4 6 C-4.99 5.34 -5.98 4.68 -7 4 C-9.10576585 3.36708871 -9.10576585 3.36708871 -11.375 2.9375 C-12.16519531 2.77378906 -12.95539062 2.61007813 -13.76953125 2.44140625 C-14.87361328 2.22291016 -14.87361328 2.22291016 -16 2 C-17.010625 1.79375 -18.02125 1.5875 -19.0625 1.375 C-19.701875 1.25125 -20.34125 1.1275 -21 1 C-13.36486988 -4.09008675 -8.36456863 -2.81339921 0 0 Z " fill="#B99E87" transform="translate(21,25)"/>
<path d="M0 0 C2.375 0.3125 2.375 0.3125 5 1 C7 4 7 4 6.625 6.6875 C6.41875 7.450625 6.2125 8.21375 6 9 C5.608125 8.34 5.21625 7.68 4.8125 7 C3.15248934 4.75466585 3.15248934 4.75466585 0.4375 4.5625 C-0.366875 4.706875 -1.17125 4.85125 -2 5 C-2.99 6.485 -2.99 6.485 -4 8 C-3.01 8 -2.02 8 -1 8 C-1 8.66 -1 9.32 -1 10 C-2.32 9.67 -3.64 9.34 -5 9 C-5.33 10.32 -5.66 11.64 -6 13 C-6.75 10.8125 -6.75 10.8125 -7 8 C-4.88388365 4.67467431 -3.77269733 3.25756578 0 2 C0 1.34 0 0.68 0 0 Z " fill="#4B3C30" transform="translate(16,3)"/>
<path d="M0 0 C1.41750563 0.11509661 2.83401169 0.24253658 4.25 0.375 C5.03890625 0.44460937 5.8278125 0.51421875 6.640625 0.5859375 C9.085877 1.01507113 10.84836903 1.78600638 13 3 C12.01 3 11.02 3 10 3 C10 3.99 10 4.98 10 6 C6.7 6 3.4 6 0 6 C0 4.02 0 2.04 0 0 Z " fill="#CCD0CA" transform="translate(0,26)"/>
<path d="M0 0 C1.65 0 3.3 0 5 0 C6.125 6.75 6.125 6.75 5 9 C3.68 8.67 2.36 8.34 1 8 C0.67 5.36 0.34 2.72 0 0 Z " fill="#D2AD98" transform="translate(16,9)"/>
<path d="M0 0 C1.71875 2.01953125 1.71875 2.01953125 3 4 C1.02013918 3.88652381 -0.95891598 3.7589065 -2.9375 3.625 C-4.03964844 3.55539063 -5.14179688 3.48578125 -6.27734375 3.4140625 C-7.17582031 3.27742188 -8.07429687 3.14078125 -9 3 C-9.33 2.34 -9.66 1.68 -10 1 C-6.41996227 -0.19334591 -3.75684104 -0.33543224 0 0 Z " fill="#AFAFA9" transform="translate(10,24)"/>
<path d="M0 0 C0.268125 0.639375 0.53625 1.27875 0.8125 1.9375 C1.88667752 4.33131686 1.88667752 4.33131686 5 5 C4.25 6.9375 4.25 6.9375 3 9 C0.875 9.75 0.875 9.75 -1 10 C-1.33 9.01 -1.66 8.02 -2 7 C-1.34 7 -0.68 7 0 7 C0 4.69 0 2.38 0 0 Z " fill="#BE9781" transform="translate(16,13)"/>
<path d="M0 0 C1.98 0.99 3.96 1.98 6 3 C6 3.99 6 4.98 6 6 C4.02 6 2.04 6 0 6 C0 4.02 0 2.04 0 0 Z " fill="#D2D6D3" transform="translate(21,26)"/>
<path d="M0 0 C0 0.66 0 1.32 0 2 C0.99 2.33 1.98 2.66 3 3 C1.88625 3.309375 0.7725 3.61875 -0.375 3.9375 C-3.7945155 4.82326483 -3.7945155 4.82326483 -6 6 C-5.625 3.5625 -5.625 3.5625 -5 1 C-3 0 -3 0 0 0 Z " fill="#141009" transform="translate(16,3)"/>
<path d="M0 0 C1.65 0 3.3 0 5 0 C5.33 0.66 5.66 1.32 6 2 C4.68 2 3.36 2 2 2 C2 2.66 2 3.32 2 4 C0.68 4 -0.64 4 -2 4 C-1.34 2.68 -0.68 1.36 0 0 Z " fill="#C19A83" transform="translate(14,7)"/>
</svg>
